<svg width="116" height="28" viewBox="0 0 116 28" fill="none"
    xmlns="http://www.w3.org/2000/svg">
    <path d="M8.90098 4.05436H15.058V1.44081H0V4.05436H6.09014V26.7052H8.90098V4.05436Z" fill="#172B4D"/>
    <path d="M38.8118 23.7067L41.6227 26.7052V7.23755L61.2985 27.8444V1.44081H58.4877V21.009L38.8118 0.36858V23.7067Z" fill="#172B4D"/>
    <path d="M66.5516 26.7052H71.2363C75.1849 26.7052 78.1965 26.2026 81.2081 23.522C83.9854 21.0425 85.3239 17.7923 85.3239 14.1065C85.3239 10.3537 84.0189 6.96949 81.1411 4.48996C78.163 1.94342 75.0845 1.44081 71.3032 1.44081H66.5516V26.7052ZM69.3624 24.0916V4.05436H71.4036C74.3818 4.05436 76.9249 4.45645 79.2338 6.50039C81.4088 8.4103 82.5131 11.1914 82.5131 14.073C82.5131 16.8876 81.4423 19.5347 79.3676 21.4781C77.0587 23.6561 74.4821 24.0916 71.4036 24.0916H69.3624Z" fill="#172B4D"/>
    <path d="M87.3897 26.7052H90.2675L93.5133 9.61655H93.5802L101.678 27.7439L109.809 9.61655H109.876L113.122 26.7052H116L110.88 0L101.678 21.21L92.5094 0L87.3897 26.7052Z" fill="#172B4D"/>
    <path d="M19.1375 26.8608H21.9483V7.3931L41.6242 28V4.36527L38.8133 1.59637V21.1645L19.1375 0.524137V26.8608Z" fill="#172B4D"/>
    <path d="M34.2959 19.5455V16.9319H25.4867V19.5455H34.2959Z" fill="#172B4D"/>
</svg>
