<svg width="233" height="24" viewBox="0 0 233 24" fill="none"
    xmlns="http://www.w3.org/2000/svg">
    <path d="M10.2665 23.6351C10.2176 23.6351 10.1706 23.6156 10.136 23.581C10.1014 23.5463 10.082 23.4993 10.082 23.4503V3.50884H0.364392C0.339856 3.50931 0.315473 3.50488 0.292668 3.49581C0.269863 3.48674 0.249095 3.47321 0.231578 3.45601C0.214062 3.43881 0.200148 3.41829 0.190651 3.39564C0.181154 3.37299 0.176265 3.34868 0.17627 3.32412V0.449455C0.1765 0.425046 0.181562 0.400924 0.191163 0.378484C0.200764 0.356045 0.214715 0.335732 0.232208 0.318721C0.249701 0.301709 0.27039 0.288337 0.293078 0.279376C0.315767 0.270415 0.340005 0.266043 0.364392 0.266514H23.081C23.1298 0.266749 23.1765 0.286313 23.211 0.320929C23.2454 0.355545 23.2647 0.402395 23.2647 0.451231V3.32412C23.2647 3.37296 23.2454 3.41981 23.211 3.45442C23.1765 3.48904 23.1298 3.5086 23.081 3.50884H13.3626V23.4503C13.3626 23.4992 13.3432 23.546 13.3088 23.5806C13.2744 23.6153 13.2277 23.6348 13.1789 23.6351H10.2665Z" fill="url(#paint0_linear)"/>
    <path d="M23.0822 0.449574V3.32424H13.1801V23.4505H10.2677V3.32424H0.365596V0.449574H23.0822ZM23.0822 0.0801392H0.365596C0.268309 0.0810754 0.175324 0.120411 0.106862 0.189592C0.0383998 0.258773 -4.49728e-06 0.352206 3.9501e-10 0.449574V3.32424C3.9501e-10 3.42222 0.038892 3.51619 0.10812 3.58547C0.177348 3.65475 0.271242 3.69368 0.369145 3.69368H9.89859V23.4505C9.89859 23.5484 9.93748 23.6424 10.0067 23.7117C10.0759 23.781 10.1698 23.8199 10.2677 23.8199H13.1801C13.2778 23.8197 13.3715 23.7806 13.4405 23.7114C13.5096 23.6421 13.5483 23.5483 13.5483 23.4505V3.69368H23.0822C23.1306 3.69368 23.1786 3.68411 23.2233 3.66554C23.2681 3.64696 23.3087 3.61973 23.3429 3.58542C23.3771 3.5511 23.4042 3.51037 23.4227 3.46555C23.4412 3.42073 23.4506 3.37271 23.4505 3.32424V0.449574C23.4506 0.401101 23.4412 0.353081 23.4227 0.308265C23.4042 0.263448 23.3771 0.222715 23.3429 0.188398C23.3087 0.154081 23.2681 0.126855 23.2233 0.108278C23.1786 0.0897011 23.1306 0.080139 23.0822 0.0801392Z" fill="url(#paint1_linear)"/>
    <path d="M44.5134 23.6466C44.4737 23.6466 44.4351 23.6345 44.4025 23.6119L36.0878 17.8964H30.3634V23.4503C30.3634 23.5024 30.3427 23.5523 30.306 23.5891C30.2692 23.6259 30.2193 23.6466 30.1673 23.6466H27.2514C27.1994 23.6466 27.1495 23.6259 27.1127 23.5891C27.076 23.5523 27.0553 23.5024 27.0553 23.4503V0.449436C27.0553 0.397384 27.076 0.347464 27.1127 0.310658C27.1495 0.273851 27.1994 0.253174 27.2514 0.253174H39.4971C44.4335 0.253174 48.4497 4.21039 48.4497 9.07432C48.4497 13.1976 45.5702 16.7365 41.5389 17.6593L49.7276 23.2887C49.7609 23.3128 49.7857 23.3468 49.7987 23.3858C49.8117 23.4249 49.812 23.467 49.7998 23.5062C49.7875 23.5455 49.7632 23.5799 49.7304 23.6046C49.6975 23.6293 49.6577 23.6431 49.6166 23.6439L44.5134 23.6466ZM39.5006 14.6283C42.6064 14.6283 45.1372 12.1373 45.1372 9.07432C45.1372 6.01139 42.6091 3.52037 39.5006 3.52037H30.3607V14.6283H39.5006Z" fill="url(#paint2_linear)"/>
    <path d="M39.5006 0.449409C44.3323 0.449409 48.25 4.31072 48.25 9.0743C48.25 13.3184 45.1371 16.8386 41.0419 17.558L49.613 23.4503H44.5133L36.1481 17.7001H30.1699V23.4503H27.2513V0.449409H39.497H39.5006ZM30.1699 14.8245H39.5006C42.7217 14.8245 45.3332 12.2491 45.3332 9.0743C45.3332 5.89946 42.7217 3.32408 39.5006 3.32408H30.1699V14.8245ZM39.5006 0.0568848H27.2549C27.2034 0.0568848 27.1524 0.0670377 27.1048 0.0867639C27.0572 0.10649 27.014 0.135403 26.9775 0.171853C26.9411 0.208302 26.9122 0.251574 26.8925 0.299197C26.8728 0.34682 26.8627 0.397862 26.8627 0.449409V23.4503C26.8627 23.5544 26.904 23.6542 26.9775 23.7278C27.0511 23.8015 27.1509 23.8428 27.2549 23.8428H30.1699C30.274 23.8428 30.3738 23.8015 30.4475 23.7279C30.5212 23.6543 30.5628 23.5545 30.563 23.4503V18.0926H36.0265L44.2906 23.7762C44.3561 23.8214 44.4338 23.8456 44.5133 23.8455H49.613C49.6966 23.8453 49.778 23.8185 49.8453 23.7688C49.9126 23.7191 49.9622 23.6492 49.987 23.5692C50.0117 23.4893 50.0103 23.4036 49.983 23.3245C49.9556 23.2454 49.9037 23.1772 49.8348 23.1297L42.0021 17.7445C43.7419 17.2562 45.2993 16.2656 46.4797 14.8965C47.8726 13.2778 48.6398 11.2132 48.6422 9.07696C48.6422 4.1038 44.5417 0.059549 39.5023 0.059549L39.5006 0.0568848ZM30.5603 3.71749H39.5006C42.5008 3.71749 44.941 6.12059 44.941 9.0743C44.941 12.028 42.5008 14.432 39.5006 14.432H30.5603V3.71749Z" fill="url(#paint3_linear)"/>
    <path d="M61.8718 23.6225C57.0347 23.6225 53.0993 19.6662 53.0993 14.8022V0.448435C53.099 0.421421 53.1041 0.394626 53.1143 0.36959C53.1244 0.344554 53.1394 0.321768 53.1583 0.302542C53.1773 0.283316 53.1999 0.268028 53.2248 0.257555C53.2496 0.247083 53.2764 0.241632 53.3033 0.241516H56.1598C56.1867 0.241631 56.2134 0.247088 56.2382 0.257571C56.2631 0.268055 56.2856 0.283357 56.3045 0.302595C56.3234 0.321833 56.3383 0.344626 56.3483 0.369657C56.3583 0.394689 56.3633 0.421463 56.363 0.448435V14.8049C56.3625 16.2689 56.9422 17.6734 57.9748 18.7104C59.0075 19.7473 60.4089 20.3322 61.8718 20.3367H67.5838C69.0469 20.3319 70.4485 19.7466 71.4811 18.7091C72.5136 17.6716 73.0928 16.2666 73.0916 14.8022V0.448435C73.0914 0.421421 73.0965 0.394626 73.1067 0.36959C73.1168 0.344554 73.1318 0.321768 73.1507 0.302542C73.1697 0.283316 73.1923 0.268028 73.2172 0.257555C73.242 0.247083 73.2687 0.241632 73.2957 0.241516H76.1522C76.1792 0.241632 76.2059 0.247083 76.2308 0.257555C76.2556 0.268028 76.2782 0.283316 76.2972 0.302542C76.3161 0.321768 76.3311 0.344554 76.3413 0.36959C76.3514 0.394626 76.3565 0.421421 76.3563 0.448435V14.8049C76.3563 19.6688 72.4208 23.6252 67.5838 23.6252L61.8718 23.6225Z" fill="url(#paint4_linear)"/>
    <path d="M76.1523 0.44854V14.805C76.1523 19.5615 72.3153 23.4192 67.5839 23.4192H61.8719C57.1395 23.4192 53.3034 19.5624 53.3034 14.805V0.44854H56.1599V14.805C56.1566 16.3245 56.7565 17.7831 57.8277 18.8599C58.8989 19.9368 60.3536 20.5437 61.8719 20.5472H67.5839C69.1021 20.5437 70.5569 19.9368 71.628 18.8599C72.6992 17.7831 73.2991 16.3245 73.2958 14.805V0.44854H76.1523ZM76.1523 0.0338135H73.2958C73.2419 0.034278 73.1886 0.0453738 73.1389 0.0664676C73.0892 0.0875613 73.0442 0.11824 73.0064 0.156751C72.9685 0.195262 72.9387 0.240852 72.9185 0.290918C72.8982 0.340983 72.8881 0.394543 72.8885 0.44854V14.805C72.8885 16.2148 72.3303 17.5671 71.336 18.5658C70.3418 19.5646 68.9925 20.1282 67.5839 20.1334H61.8719C60.4632 20.1282 59.114 19.5646 58.1197 18.5658C57.1254 17.5671 56.5672 16.2148 56.5672 14.805V0.44854C56.5676 0.394543 56.5575 0.340983 56.5373 0.290918C56.5171 0.240852 56.4872 0.195262 56.4494 0.156751C56.4115 0.11824 56.3665 0.0875613 56.3168 0.0664676C56.2672 0.0453738 56.2138 0.034278 56.1599 0.0338135H53.3034C53.2495 0.034278 53.1961 0.0453738 53.1465 0.0664676C53.0968 0.0875613 53.0518 0.11824 53.014 0.156751C52.9761 0.195262 52.9463 0.240852 52.926 0.290918C52.9058 0.340983 52.8957 0.394543 52.8961 0.44854V14.805C52.8961 19.7782 56.9221 23.8331 61.8719 23.8331H67.5839C72.5336 23.8331 76.5596 19.7826 76.5596 14.805V0.44854C76.5601 0.394543 76.5499 0.340983 76.5297 0.290918C76.5095 0.240852 76.4796 0.195262 76.4418 0.156751C76.4039 0.11824 76.3589 0.0875613 76.3092 0.0664676C76.2596 0.0453738 76.2062 0.034278 76.1523 0.0338135Z" fill="url(#paint5_linear)"/>
    <path d="M100.645 23.6616C100.615 23.6617 100.586 23.6554 100.558 23.6431C100.531 23.6309 100.507 23.613 100.487 23.5906L84.5145 5.60636V23.4503C84.5145 23.4781 84.509 23.5056 84.4983 23.5313C84.4876 23.557 84.472 23.5804 84.4523 23.6C84.4326 23.6197 84.4092 23.6352 84.3835 23.6458C84.3578 23.6564 84.3302 23.6617 84.3024 23.6616H81.3803C81.3525 23.6617 81.3249 23.6564 81.2992 23.6458C81.2735 23.6352 81.2501 23.6197 81.2304 23.6C81.2107 23.5804 81.195 23.557 81.1844 23.5313C81.1737 23.5056 81.1682 23.4781 81.1682 23.4503V0.449369C81.1682 0.393078 81.1906 0.339092 81.2303 0.299287C81.2701 0.259483 81.324 0.237122 81.3803 0.237122H84.2988C84.3287 0.237287 84.3581 0.243693 84.3853 0.255928C84.4125 0.268163 84.4369 0.285957 84.4568 0.308167L100.429 18.2933V0.449369C100.429 0.393231 100.452 0.339379 100.491 0.299601C100.531 0.259822 100.585 0.237356 100.641 0.237122H103.56C103.616 0.237356 103.67 0.259822 103.709 0.299601C103.749 0.339379 103.771 0.393231 103.771 0.449369V23.4503C103.771 23.478 103.766 23.5055 103.755 23.5311C103.745 23.5568 103.729 23.5801 103.709 23.5997C103.69 23.6193 103.667 23.6349 103.641 23.6455C103.615 23.6561 103.588 23.6616 103.56 23.6616H100.645Z" fill="url(#paint6_linear)"/>
    <path d="M103.565 0.449364V23.4502H100.645L84.2991 5.04954V23.4502H81.3805V0.449364H84.2991L100.645 18.8501V0.449364H103.565ZM103.565 0.0257571H100.645C100.533 0.0259923 100.426 0.0707261 100.347 0.150142C100.267 0.229559 100.223 0.33717 100.223 0.449364V17.7364L84.6159 0.167848C84.5761 0.123099 84.5273 0.0872971 84.4727 0.0628046C84.4181 0.038312 84.3589 0.0256852 84.2991 0.0257571H81.3805C81.2683 0.0257571 81.1606 0.070387 81.0812 0.149829C81.0019 0.22927 80.9573 0.337017 80.9573 0.449364V23.4502C80.9573 23.5626 81.0019 23.6703 81.0812 23.7498C81.1606 23.8292 81.2683 23.8739 81.3805 23.8739H84.2991C84.4114 23.8739 84.519 23.8292 84.5984 23.7498C84.6778 23.6703 84.7224 23.5626 84.7224 23.4502V6.16317L100.329 23.7318C100.369 23.7764 100.418 23.8121 100.472 23.8365C100.527 23.861 100.586 23.8737 100.645 23.8739H103.565C103.677 23.8736 103.784 23.8289 103.864 23.7495C103.943 23.6701 103.988 23.5625 103.988 23.4502V0.449364C103.988 0.337089 103.943 0.229479 103.864 0.150088C103.784 0.070697 103.677 0.0259918 103.565 0.0257571Z" fill="url(#paint7_linear)"/>
    <path d="M126.316 23.675C126.269 23.6749 126.223 23.66 126.184 23.6324L111.651 13.1825V23.4503C111.651 23.5099 111.628 23.567 111.585 23.6092C111.543 23.6513 111.486 23.675 111.427 23.675H108.534C108.474 23.675 108.417 23.6513 108.375 23.6092C108.333 23.567 108.309 23.5099 108.309 23.4503V0.449412C108.309 0.389823 108.333 0.332675 108.375 0.290539C108.417 0.248403 108.474 0.224731 108.534 0.224731H111.427C111.486 0.224731 111.543 0.248403 111.585 0.290539C111.628 0.332675 111.651 0.389823 111.651 0.449412V8.54235L123.883 0.266471C123.92 0.241524 123.964 0.228232 124.009 0.228284H129.147C129.195 0.228393 129.242 0.243854 129.28 0.272405C129.319 0.300956 129.347 0.341097 129.361 0.386954C129.376 0.43281 129.375 0.481974 129.359 0.527249C129.343 0.572525 129.313 0.611535 129.273 0.63857L114.146 10.8753L131.381 23.2674C131.42 23.295 131.449 23.3343 131.464 23.3795C131.479 23.4247 131.479 23.4735 131.464 23.5188C131.45 23.5642 131.421 23.6038 131.383 23.6318C131.344 23.6599 131.298 23.675 131.25 23.675H126.316Z" fill="url(#paint8_linear)"/>
    <path d="M129.148 0.449362L113.754 10.869L131.251 23.4502H126.316L111.427 12.7437V23.4502H108.534V0.449362H111.427V8.96946L124.009 0.449362H129.148ZM129.148 8.81098e-07H124.009C123.919 -5.57443e-05 123.832 0.0268579 123.757 0.0772625L111.876 8.11958V0.449362C111.876 0.330184 111.829 0.215887 111.745 0.131616C111.66 0.0473441 111.546 8.81098e-07 111.427 8.81098e-07H108.534C108.475 -0.000116153 108.417 0.011427 108.362 0.0339681C108.308 0.0565091 108.258 0.0896043 108.217 0.131355C108.175 0.173105 108.142 0.222689 108.119 0.27726C108.097 0.331832 108.085 0.390318 108.085 0.449362V23.4502C108.085 23.5694 108.133 23.6837 108.217 23.768C108.301 23.8523 108.415 23.8996 108.534 23.8996H111.427C111.546 23.8994 111.66 23.852 111.744 23.7677C111.829 23.6835 111.876 23.5694 111.876 23.4502V13.6203L126.055 23.8152C126.132 23.8713 126.225 23.9009 126.321 23.8996H131.255C131.351 23.9005 131.444 23.871 131.522 23.8153C131.599 23.7597 131.657 23.6807 131.686 23.59C131.716 23.4992 131.716 23.4014 131.687 23.3106C131.657 23.2199 131.599 23.1409 131.522 23.0853L114.538 10.8806L129.4 0.821461C129.479 0.767532 129.54 0.689465 129.572 0.598742C129.604 0.508019 129.606 0.409429 129.577 0.317472C129.549 0.225515 129.492 0.145045 129.415 0.0878974C129.338 0.0307495 129.244 -5.97606e-05 129.148 8.81098e-07Z" fill="url(#paint9_linear)"/>
    <path d="M133.469 23.6661C133.412 23.6661 133.357 23.6433 133.317 23.6029C133.276 23.5624 133.254 23.5075 133.254 23.4503V0.449381C133.254 0.392148 133.276 0.337258 133.317 0.296788C133.357 0.256318 133.412 0.233582 133.469 0.233582H144.326C150.202 0.233582 154.626 4.97319 154.626 10.8016V13.1016C154.626 18.9282 150.202 23.6696 144.326 23.6696L133.469 23.6661ZM144.326 20.3589C148.365 20.3589 151.651 17.1024 151.651 13.0999V10.7998C151.651 6.79727 148.367 3.53985 144.326 3.53985H136.584V20.3589H144.326Z" fill="url(#paint10_linear)"/>
    <path d="M144.326 0.44932C150.094 0.44932 154.41 5.08324 154.41 10.7997V13.0998C154.41 18.8163 150.092 23.4502 144.326 23.4502H133.469V0.44932H144.326ZM136.368 20.5746H144.326C148.49 20.5746 151.868 17.2284 151.868 13.0998V10.7997C151.868 6.6711 148.496 3.32399 144.326 3.32399H136.368V20.5746ZM144.326 0.0177202H133.469C133.412 0.0176034 133.356 0.0286809 133.304 0.0503185C133.251 0.0719561 133.204 0.103729 133.163 0.143818C133.123 0.183908 133.091 0.231526 133.07 0.283948C133.048 0.33637 133.037 0.392567 133.037 0.44932V23.4502C133.037 23.5648 133.083 23.6745 133.164 23.7554C133.245 23.8364 133.354 23.8818 133.469 23.8818H144.326C145.751 23.8869 147.164 23.6107 148.482 23.0691C149.801 22.5276 151 21.7312 152.011 20.7256C154.066 18.6884 154.845 15.9851 154.845 13.0998V10.7997C154.845 7.91883 154.069 5.21024 152.015 3.1739C151.003 2.16786 149.804 1.37127 148.484 0.829698C147.165 0.288128 145.752 0.0122066 144.326 0.0177202ZM136.799 3.75559H144.326C148.245 3.75559 151.435 6.91621 151.435 10.7997V13.0998C151.435 16.9833 148.245 20.1431 144.326 20.1431H136.799V3.75559Z" fill="url(#paint11_linear)"/>
    <path d="M175.822 23.6537C175.781 23.6536 175.741 23.6412 175.707 23.6181L167.366 17.9034H161.627V23.4503C161.627 23.5042 161.606 23.5559 161.568 23.5941C161.53 23.6322 161.478 23.6537 161.424 23.6537H158.496C158.442 23.6534 158.39 23.6319 158.352 23.5938C158.314 23.5557 158.293 23.5042 158.292 23.4503V0.4494C158.292 0.395463 158.314 0.343736 158.352 0.305598C158.39 0.267459 158.442 0.246033 158.496 0.246033H170.794C175.75 0.246033 179.782 4.2068 179.782 9.07429C179.782 13.1958 176.896 16.7338 172.853 17.6619L181.061 23.2824C181.097 23.307 181.124 23.3424 181.139 23.3835C181.153 23.4246 181.154 23.4692 181.141 23.5107C181.128 23.5522 181.102 23.5885 181.067 23.6142C181.032 23.64 180.99 23.6538 180.946 23.6537H175.822ZM170.789 14.6211C173.907 14.6211 176.443 12.1346 176.443 9.07429C176.443 6.01402 173.907 3.52832 170.789 3.52832H161.623V14.6211H170.789Z" fill="url(#paint12_linear)"/>
    <path d="M170.79 0.449336C175.641 0.449336 179.575 4.31064 179.575 9.07422C179.575 13.3183 176.45 16.8386 172.338 17.5579L180.945 23.4502H175.822L167.424 17.7H161.419V23.4502H158.491V0.449336H170.79ZM161.419 14.8244H170.79C174.024 14.8244 176.647 12.2491 176.647 9.07422C176.647 5.89939 174.025 3.324 170.79 3.324H161.419V14.8244ZM170.79 0.0426025H158.491C158.383 0.0426025 158.28 0.0854547 158.204 0.161732C158.128 0.238009 158.085 0.341464 158.085 0.449336V23.4502C158.085 23.5581 158.128 23.6615 158.204 23.7378C158.28 23.8141 158.383 23.857 158.491 23.857H161.419C161.527 23.857 161.631 23.8141 161.707 23.7378C161.783 23.6615 161.826 23.5581 161.826 23.4502V18.1067H167.298L175.593 23.7859C175.66 23.8323 175.74 23.857 175.822 23.857H180.942C181.028 23.857 181.113 23.8293 181.183 23.7777C181.253 23.7262 181.304 23.6536 181.33 23.5706C181.356 23.4876 181.354 23.3985 181.326 23.3164C181.297 23.2344 181.243 23.1636 181.171 23.1145L173.333 17.7471C175.069 17.2567 176.624 16.2688 177.806 14.9053C179.206 13.2858 179.978 11.2166 179.981 9.07511C179.981 4.09484 175.858 0.0434906 170.79 0.0434906V0.0426025ZM161.826 3.72985H170.788C173.793 3.72985 176.238 6.12762 176.238 9.07245C176.238 12.0173 173.793 14.4159 170.788 14.4159H161.826V3.72985Z" fill="url(#paint13_linear)"/>
    <path d="M210.134 23.6439C210.083 23.6439 210.034 23.6235 209.998 23.5872C209.961 23.5509 209.941 23.5017 209.941 23.4503V0.44943C209.941 0.398003 209.961 0.348668 209.998 0.312221C210.034 0.275773 210.083 0.255179 210.134 0.254944H223.508C228.425 0.254944 232.424 4.21127 232.424 9.07432C232.424 13.9374 228.425 17.8946 223.508 17.8946H213.234V23.4503C213.234 23.5017 213.214 23.5509 213.177 23.5872C213.141 23.6235 213.092 23.6439 213.041 23.6439H210.134ZM223.508 14.6309C226.607 14.6309 229.129 12.1381 229.129 9.07432C229.129 6.01049 226.607 3.51858 223.508 3.51858H213.234V14.6309H223.508Z" fill="url(#paint14_linear)"/>
    <path d="M223.507 0.449425C228.325 0.449425 232.23 4.31073 232.23 9.07431C232.23 13.8379 228.326 17.7001 223.507 17.7001H213.042V23.4503H210.134V0.449425H223.507ZM213.042 14.8245H223.507C226.719 14.8245 229.322 12.2491 229.322 9.07431C229.322 5.89948 226.721 3.32409 223.507 3.32409H213.042V14.8245ZM223.507 0.0613403H210.134C210.031 0.0613403 209.932 0.102228 209.86 0.175008C209.787 0.247788 209.746 0.346498 209.746 0.449425V23.4503C209.746 23.5532 209.787 23.6519 209.86 23.7247C209.932 23.7975 210.031 23.8384 210.134 23.8384H213.042C213.145 23.8384 213.243 23.7975 213.316 23.7247C213.389 23.6519 213.43 23.5532 213.43 23.4503V18.0882H223.507C228.531 18.0882 232.618 14.0448 232.618 9.07431C232.618 4.10381 228.531 0.0613403 223.507 0.0613403ZM213.43 3.71218H223.507C226.501 3.71218 228.935 6.11794 228.935 9.07431C228.935 12.0307 226.501 14.4365 223.507 14.4365H213.43V3.71218Z" fill="url(#paint15_linear)"/>
    <path d="M196.51 23.8054H193.528C191.753 23.8054 189.811 23.7992 188.817 23.7575H188.808C187.211 23.7575 185.756 23.1358 184.708 21.9964C183.683 20.8855 183.118 19.3793 183.118 17.755V8.92768C183.118 8.08579 183.749 7.70215 184.335 7.70215H187.435V10.8441H187.278C186.581 10.8441 186.269 11.3583 186.269 11.8681C186.269 12.0332 186.269 12.4844 186.269 13.0128C186.269 13.7516 186.269 14.6672 186.269 15.1388C186.269 17.3004 188.133 19.1236 190.346 19.1236H199.057C201.364 19.1236 203.151 16.6592 203.151 14.5358C203.151 14.0651 203.151 13.3573 203.145 12.7872C203.145 12.3796 203.145 12.0324 203.145 11.8672C203.145 11.3743 202.825 10.8441 202.121 10.8441H201.964V7.70215H205.065C205.65 7.70215 206.28 8.08579 206.28 8.92768V17.7542C206.28 19.3784 205.716 20.8846 204.691 21.9956C203.643 23.1314 202.187 23.7566 200.591 23.7566H200.583C199.573 23.8001 197.876 23.8054 196.51 23.8054Z" fill="#00AEEF"/>
    <path d="M205.057 7.89851C205.565 7.89851 206.074 8.21732 206.074 8.92777V17.7543C206.074 19.3288 205.529 20.7879 204.537 21.8624C204.052 22.3931 203.463 22.8178 202.806 23.1102C202.105 23.4192 201.347 23.5775 200.581 23.5746H200.573L200.564 23.5684C199.568 23.611 197.874 23.6128 196.509 23.6128C196.155 23.6128 195.8 23.6128 195.48 23.6128H194.695H193.528C191.861 23.6128 189.82 23.6128 188.825 23.5729L188.817 23.5791H188.808C188.042 23.5818 187.284 23.4236 186.582 23.1146C185.926 22.8238 185.337 22.4006 184.852 21.8713C183.861 20.7968 183.314 19.3341 183.314 17.7596V8.92777C183.314 8.21732 183.827 7.89851 184.335 7.89851H187.239V10.6515C186.551 10.6693 186.073 11.1657 186.073 11.8717C186.073 12.036 186.073 12.4934 186.073 13.0164C186.073 13.7544 186.068 14.6709 186.068 15.1425C186.068 17.4106 188.025 19.3244 190.341 19.3244H199.053C201.468 19.3244 203.342 16.7534 203.342 14.5395C203.342 14.0679 203.342 13.3601 203.337 12.79C203.337 12.385 203.337 12.0351 203.337 11.8708C203.342 11.7124 203.316 11.5544 203.259 11.4065C203.202 11.2585 203.116 11.1235 203.006 11.0097C202.895 10.8959 202.763 10.8055 202.617 10.7439C202.471 10.6824 202.314 10.6509 202.156 10.6515V7.89851H205.066H205.057ZM205.06 7.50598H201.764V11.0405H202.119C202.671 11.0405 202.946 11.4348 202.946 11.8682C202.946 12.2669 202.954 13.7331 202.954 14.5324C202.954 16.6326 201.165 18.9238 199.057 18.9238H190.34C188.253 18.9238 186.459 17.2365 186.459 15.1353C186.459 14.3361 186.466 12.2625 186.466 11.8628C186.466 11.4303 186.725 11.0369 187.277 11.0369H187.632V7.50598H184.336C183.58 7.50598 182.923 8.02372 182.923 8.92689V17.7534C182.923 21.1529 185.338 23.9521 188.809 23.9521C189.834 23.9956 191.907 24 193.529 24H194.696H196.51C197.966 24 199.604 23.9938 200.582 23.9512C204.053 23.9512 206.468 21.152 206.468 17.7525V8.92777C206.468 8.02372 205.812 7.50687 205.056 7.50687L205.06 7.50598Z" fill="url(#paint16_linear)"/>
    <path d="M194.695 16.146H194.688C194.591 16.146 194.505 16.0802 194.361 15.963L194.35 15.9541L191.375 13.5928H192.54V3.77521H188.033L190.439 0.63324H198.958L201.365 3.77521H196.857V13.5928H198.021L195.043 15.9524L195.03 15.963C194.886 16.0802 194.8 16.146 194.704 16.146H194.695Z" fill="url(#paint17_linear)"/>
    <path d="M198.858 0.829488L200.965 3.58249H196.658V13.7952H197.457L194.925 15.804L194.914 15.8129C194.854 15.8702 194.786 15.9172 194.711 15.9523H194.688C194.613 15.917 194.544 15.87 194.484 15.8129L194.473 15.804L191.937 13.7899H192.735V3.57894H188.429L190.535 0.825935H198.858V0.829488ZM199.052 0.433411H190.34L187.632 3.96791H192.341V13.3965H190.81L194.224 16.1069C194.382 16.2348 194.51 16.3422 194.685 16.3422H194.705C194.882 16.3422 195.007 16.2348 195.165 16.1069L198.58 13.3965H197.049V3.97146H201.758L199.05 0.436963L199.052 0.433411Z" fill="url(#paint18_linear)"/>
    <path opacity="0.22" d="M184.371 21.2522L186.493 16.4513C186.493 16.4513 187.58 19.3597 190.59 19.3597L198.547 19.3731C198.547 19.3731 201.475 19.7638 202.835 16.3456L205.075 21.4378C205.075 21.4378 203.515 23.6757 201.043 23.8356L189.946 23.9022C189.946 23.9022 186.655 24.5407 184.371 21.2522Z" fill="url(#paint19_linear)"/>
    <defs>
        <linearGradient id="paint0_linear" x1="0.179819" y1="11.9499" x2="23.2647" y2="11.9499" gradientUnits="userSpaceOnUse">
            <stop stop-color="#00AEEF"/>
            <stop offset="0.55" stop-color="#00AEEF"/>
        </linearGradient>
        <linearGradient id="paint1_linear" x1="11.7239" y1="26.2079" x2="11.7239" y2="-4.42946" gradientUnits="userSpaceOnUse">
            <stop stop-color="#485AA5"/>
            <stop offset="0.19" stop-color="#4A7CA7"/>
            <stop offset="0.36" stop-color="#609CBF"/>
            <stop offset="0.41" stop-color="#88C0DC"/>
            <stop offset="0.48" stop-color="#B3E6FB"/>
            <stop offset="0.51" stop-color="#9AE7FC"/>
            <stop offset="0.55" stop-color="#77E8FE"/>
            <stop offset="0.58" stop-color="#6AE8FF"/>
            <stop offset="0.59" stop-color="#6EE4FC"/>
            <stop offset="0.66" stop-color="#7FD2EC"/>
            <stop offset="0.7" stop-color="#85CCE7"/>
            <stop offset="0.72" stop-color="#6ABDDD"/>
            <stop offset="0.75" stop-color="#4AABD1"/>
            <stop offset="0.78" stop-color="#349EC9"/>
            <stop offset="0.81" stop-color="#2697C4"/>
            <stop offset="0.83" stop-color="#2194C2"/>
            <stop offset="1" stop-color="#1E93C1"/>
        </linearGradient>
        <linearGradient id="paint2_linear" x1="6987.32" y1="3148.07" x2="12821.7" y2="3148.07" gradientUnits="userSpaceOnUse">
            <stop stop-color="#00AEEF"/>
            <stop offset="0.55" stop-color="#00AEEF"/>
        </linearGradient>
        <linearGradient id="paint3_linear" x1="10073" y1="7020.31" x2="10073" y2="-1186.52" gradientUnits="userSpaceOnUse">
            <stop stop-color="#485AA5"/>
            <stop offset="0.19" stop-color="#4A7CA7"/>
            <stop offset="0.36" stop-color="#609CBF"/>
            <stop offset="0.41" stop-color="#88C0DC"/>
            <stop offset="0.48" stop-color="#B3E6FB"/>
            <stop offset="0.51" stop-color="#9AE7FC"/>
            <stop offset="0.55" stop-color="#77E8FE"/>
            <stop offset="0.58" stop-color="#6AE8FF"/>
            <stop offset="0.59" stop-color="#6EE4FC"/>
            <stop offset="0.66" stop-color="#7FD2EC"/>
            <stop offset="0.7" stop-color="#85CCE7"/>
            <stop offset="0.72" stop-color="#6ABDDD"/>
            <stop offset="0.75" stop-color="#4AABD1"/>
            <stop offset="0.78" stop-color="#349EC9"/>
            <stop offset="0.81" stop-color="#2697C4"/>
            <stop offset="0.83" stop-color="#2194C2"/>
            <stop offset="1" stop-color="#1E93C1"/>
        </linearGradient>
        <linearGradient id="paint4_linear" x1="13993.4" y1="3142.54" x2="20088.8" y2="3142.54" gradientUnits="userSpaceOnUse">
            <stop stop-color="#00AEEF"/>
            <stop offset="0.55" stop-color="#00AEEF"/>
        </linearGradient>
        <linearGradient id="paint5_linear" x1="17337.7" y1="7013.91" x2="17337.7" y2="-1185.41" gradientUnits="userSpaceOnUse">
            <stop stop-color="#485AA5"/>
            <stop offset="0.19" stop-color="#4A7CA7"/>
            <stop offset="0.36" stop-color="#609CBF"/>
            <stop offset="0.41" stop-color="#88C0DC"/>
            <stop offset="0.48" stop-color="#B3E6FB"/>
            <stop offset="0.51" stop-color="#9AE7FC"/>
            <stop offset="0.55" stop-color="#77E8FE"/>
            <stop offset="0.58" stop-color="#6AE8FF"/>
            <stop offset="0.59" stop-color="#6EE4FC"/>
            <stop offset="0.66" stop-color="#7FD2EC"/>
            <stop offset="0.7" stop-color="#85CCE7"/>
            <stop offset="0.72" stop-color="#6ABDDD"/>
            <stop offset="0.75" stop-color="#4AABD1"/>
            <stop offset="0.78" stop-color="#349EC9"/>
            <stop offset="0.81" stop-color="#2697C4"/>
            <stop offset="0.83" stop-color="#2194C2"/>
            <stop offset="1" stop-color="#1E93C1"/>
        </linearGradient>
        <linearGradient id="paint6_linear" x1="20779.2" y1="3152.24" x2="26537.8" y2="3152.24" gradientUnits="userSpaceOnUse">
            <stop stop-color="#00AEEF"/>
            <stop offset="0.55" stop-color="#00AEEF"/>
        </linearGradient>
        <linearGradient id="paint7_linear" x1="24104.6" y1="7037.84" x2="24104.6" y2="-1189.52" gradientUnits="userSpaceOnUse">
            <stop stop-color="#485AA5"/>
            <stop offset="0.19" stop-color="#4A7CA7"/>
            <stop offset="0.36" stop-color="#609CBF"/>
            <stop offset="0.41" stop-color="#88C0DC"/>
            <stop offset="0.48" stop-color="#B3E6FB"/>
            <stop offset="0.51" stop-color="#9AE7FC"/>
            <stop offset="0.55" stop-color="#77E8FE"/>
            <stop offset="0.58" stop-color="#6AE8FF"/>
            <stop offset="0.59" stop-color="#6EE4FC"/>
            <stop offset="0.66" stop-color="#7FD2EC"/>
            <stop offset="0.7" stop-color="#85CCE7"/>
            <stop offset="0.72" stop-color="#6ABDDD"/>
            <stop offset="0.75" stop-color="#4AABD1"/>
            <stop offset="0.78" stop-color="#349EC9"/>
            <stop offset="0.81" stop-color="#2697C4"/>
            <stop offset="0.83" stop-color="#2194C2"/>
            <stop offset="1" stop-color="#1E93C1"/>
        </linearGradient>
        <linearGradient id="paint8_linear" x1="28407.1" y1="3155.69" x2="34454.8" y2="3155.69" gradientUnits="userSpaceOnUse">
            <stop stop-color="#00AEEF"/>
            <stop offset="0.55" stop-color="#00AEEF"/>
        </linearGradient>
        <linearGradient id="paint9_linear" x1="32049.5" y1="7053.03" x2="32049.5" y2="-1192.11" gradientUnits="userSpaceOnUse">
            <stop stop-color="#485AA5"/>
            <stop offset="0.19" stop-color="#4A7CA7"/>
            <stop offset="0.36" stop-color="#609CBF"/>
            <stop offset="0.41" stop-color="#88C0DC"/>
            <stop offset="0.48" stop-color="#B3E6FB"/>
            <stop offset="0.51" stop-color="#9AE7FC"/>
            <stop offset="0.55" stop-color="#77E8FE"/>
            <stop offset="0.58" stop-color="#6AE8FF"/>
            <stop offset="0.59" stop-color="#6EE4FC"/>
            <stop offset="0.66" stop-color="#7FD2EC"/>
            <stop offset="0.7" stop-color="#85CCE7"/>
            <stop offset="0.72" stop-color="#6ABDDD"/>
            <stop offset="0.75" stop-color="#4AABD1"/>
            <stop offset="0.78" stop-color="#349EC9"/>
            <stop offset="0.81" stop-color="#2697C4"/>
            <stop offset="0.83" stop-color="#2194C2"/>
            <stop offset="1" stop-color="#1E93C1"/>
        </linearGradient>
        <linearGradient id="paint10_linear" x1="32248.9" y1="3153.79" x2="37396.4" y2="3153.79" gradientUnits="userSpaceOnUse">
            <stop stop-color="#00AEEF"/>
            <stop offset="0.55" stop-color="#00AEEF"/>
        </linearGradient>
        <linearGradient id="paint11_linear" x1="35529.5" y1="7042.59" x2="35529.5" y2="-1190.33" gradientUnits="userSpaceOnUse">
            <stop stop-color="#485AA5"/>
            <stop offset="0.19" stop-color="#4A7CA7"/>
            <stop offset="0.36" stop-color="#609CBF"/>
            <stop offset="0.41" stop-color="#88C0DC"/>
            <stop offset="0.48" stop-color="#B3E6FB"/>
            <stop offset="0.51" stop-color="#9AE7FC"/>
            <stop offset="0.55" stop-color="#77E8FE"/>
            <stop offset="0.58" stop-color="#6AE8FF"/>
            <stop offset="0.59" stop-color="#6EE4FC"/>
            <stop offset="0.66" stop-color="#7FD2EC"/>
            <stop offset="0.7" stop-color="#85CCE7"/>
            <stop offset="0.72" stop-color="#6ABDDD"/>
            <stop offset="0.75" stop-color="#4AABD1"/>
            <stop offset="0.78" stop-color="#349EC9"/>
            <stop offset="0.81" stop-color="#2697C4"/>
            <stop offset="0.83" stop-color="#2194C2"/>
            <stop offset="1" stop-color="#1E93C1"/>
        </linearGradient>
        <linearGradient id="paint12_linear" x1="40954.3" y1="3149.98" x2="46842.1" y2="3149.98" gradientUnits="userSpaceOnUse">
            <stop stop-color="#00AEEF"/>
            <stop offset="0.55" stop-color="#00AEEF"/>
        </linearGradient>
        <linearGradient id="paint13_linear" x1="44675.1" y1="7027.9" x2="44675.1" y2="-1187.82" gradientUnits="userSpaceOnUse">
            <stop stop-color="#485AA5"/>
            <stop offset="0.19" stop-color="#4A7CA7"/>
            <stop offset="0.36" stop-color="#609CBF"/>
            <stop offset="0.41" stop-color="#88C0DC"/>
            <stop offset="0.48" stop-color="#B3E6FB"/>
            <stop offset="0.51" stop-color="#9AE7FC"/>
            <stop offset="0.55" stop-color="#77E8FE"/>
            <stop offset="0.58" stop-color="#6AE8FF"/>
            <stop offset="0.59" stop-color="#6EE4FC"/>
            <stop offset="0.66" stop-color="#7FD2EC"/>
            <stop offset="0.7" stop-color="#85CCE7"/>
            <stop offset="0.72" stop-color="#6ABDDD"/>
            <stop offset="0.75" stop-color="#4AABD1"/>
            <stop offset="0.78" stop-color="#349EC9"/>
            <stop offset="0.81" stop-color="#2697C4"/>
            <stop offset="0.83" stop-color="#2194C2"/>
            <stop offset="1" stop-color="#1E93C1"/>
        </linearGradient>
        <linearGradient id="paint14_linear" x1="53425.3" y1="3147.47" x2="59121.9" y2="3147.47" gradientUnits="userSpaceOnUse">
            <stop stop-color="#00AEEF"/>
            <stop offset="0.55" stop-color="#00AEEF"/>
        </linearGradient>
        <linearGradient id="paint15_linear" x1="57242.5" y1="7016.91" x2="57242.5" y2="-1185.94" gradientUnits="userSpaceOnUse">
            <stop stop-color="#485AA5"/>
            <stop offset="0.19" stop-color="#4A7CA7"/>
            <stop offset="0.36" stop-color="#609CBF"/>
            <stop offset="0.41" stop-color="#88C0DC"/>
            <stop offset="0.48" stop-color="#B3E6FB"/>
            <stop offset="0.51" stop-color="#9AE7FC"/>
            <stop offset="0.55" stop-color="#77E8FE"/>
            <stop offset="0.58" stop-color="#6AE8FF"/>
            <stop offset="0.59" stop-color="#6EE4FC"/>
            <stop offset="0.66" stop-color="#7FD2EC"/>
            <stop offset="0.7" stop-color="#85CCE7"/>
            <stop offset="0.72" stop-color="#6ABDDD"/>
            <stop offset="0.75" stop-color="#4AABD1"/>
            <stop offset="0.78" stop-color="#349EC9"/>
            <stop offset="0.81" stop-color="#2697C4"/>
            <stop offset="0.83" stop-color="#2194C2"/>
            <stop offset="1" stop-color="#1E93C1"/>
        </linearGradient>
        <linearGradient id="paint16_linear" x1="194.695" y1="24.3064" x2="194.695" y2="-0.220186" gradientUnits="userSpaceOnUse">
            <stop offset="0.05" stop-color="#1E5177"/>
            <stop offset="0.15" stop-color="#1E5177"/>
            <stop offset="0.25" stop-color="#4A7CA7"/>
            <stop offset="0.28" stop-color="#609CBF"/>
            <stop offset="0.35" stop-color="#6EA8C7"/>
            <stop offset="0.49" stop-color="#92C8DC"/>
            <stop offset="0.66" stop-color="#C7F8FB"/>
        </linearGradient>
        <linearGradient id="paint17_linear" x1="194.695" y1="19.0055" x2="194.695" y2="-16.3137" gradientUnits="userSpaceOnUse">
            <stop stop-color="#3CBFE8"/>
            <stop offset="0.12" stop-color="#29BAEA"/>
            <stop offset="0.35" stop-color="#0BB1EE"/>
            <stop offset="0.48" stop-color="#00AEEF"/>
            <stop offset="0.51" stop-color="#08ACE9"/>
            <stop offset="0.64" stop-color="#26A4D3"/>
            <stop offset="0.72" stop-color="#31A1CB"/>
            <stop offset="0.94" stop-color="#248DB8"/>
        </linearGradient>
        <linearGradient id="paint18_linear" x1="194.695" y1="24.3064" x2="194.695" y2="-0.220205" gradientUnits="userSpaceOnUse">
            <stop offset="0.05" stop-color="#1E5177"/>
            <stop offset="0.15" stop-color="#1E5177"/>
            <stop offset="0.32" stop-color="#4A7CA7"/>
            <stop offset="0.42" stop-color="#609CBF"/>
            <stop offset="0.46" stop-color="#6EA8C7"/>
            <stop offset="0.55" stop-color="#92C8DC"/>
            <stop offset="0.66" stop-color="#C7F8FB"/>
            <stop offset="0.69" stop-color="#B1E4ED"/>
            <stop offset="0.75" stop-color="#90C4D8"/>
            <stop offset="0.81" stop-color="#75ABC7"/>
            <stop offset="0.87" stop-color="#6299BB"/>
            <stop offset="0.93" stop-color="#578EB3"/>
            <stop offset="1" stop-color="#538BB1"/>
        </linearGradient>
        <linearGradient id="paint19_linear" x1="194.722" y1="26.9296" x2="194.722" y2="-0.873939" gradientUnits="userSpaceOnUse">
            <stop offset="0.05" stop-color="#1E5177"/>
            <stop offset="0.35" stop-color="#00AFEF"/>
        </linearGradient>
    </defs>
</svg>
