<svg width="40" height="40" viewBox="0 0 40 40" fill="none"
    xmlns="http://www.w3.org/2000/svg">
    <path d="M39.9619 20.0022C39.9619 8.9777 31.0248 0.0405579 20.0002 0.0405579C8.97572 0.0405579 0.0385742 8.9777 0.0385742 20.0022C0.0385742 31.0268 8.97572 39.9639 20.0002 39.9639C31.0248 39.9639 39.9619 31.0268 39.9619 20.0022Z" fill="#414141"/>
    <path fill-rule="evenodd" clip-rule="evenodd" d="M23.9854 8.61409C23.9854 8.76134 23.9629 8.90333 23.9212 9.03681L29.3556 12.9319C29.5258 12.8294 29.7253 12.7704 29.9385 12.7704C30.5636 12.7704 31.0705 13.2773 31.0705 13.9024C31.0705 14.5276 30.5636 15.0344 29.9385 15.0344C29.3735 15.0344 28.9052 14.6206 28.8202 14.0795L18.5879 11.7324L15.1115 13.9205L16.0619 17.2534L22.7388 17.4163C22.8758 16.9452 23.3107 16.6009 23.8261 16.6009C24.4512 16.6009 24.9581 17.1076 24.9581 17.7329C24.9581 17.8481 24.9408 17.9592 24.9088 18.064L30.7538 21.8596C30.9257 21.7545 31.1278 21.6939 31.3441 21.6939C31.9692 21.6939 32.4761 22.2006 32.4761 22.8259C32.4761 23.4511 31.9692 23.9579 31.3441 23.9579C31.2712 23.9579 31.1998 23.951 31.1308 23.9379L27.1279 29.53C27.1878 29.668 27.2211 29.8202 27.2211 29.9802C27.2211 30.6054 26.7142 31.1122 26.0891 31.1122C25.7301 31.1122 25.4099 30.9451 25.2026 30.6843L18.7834 31.6698C18.6531 32.3166 18.0816 32.8038 17.3964 32.8038C16.6148 32.8038 15.9813 32.1702 15.9813 31.3888C15.9813 31.258 15.9991 31.1313 16.0323 31.0112L10.6701 27.3805C10.4892 27.503 10.2711 27.5744 10.0363 27.5744C9.41109 27.5744 8.90426 27.0676 8.90426 26.4424C8.90426 25.8172 9.41109 25.3104 10.0363 25.3104C10.601 25.3104 11.0692 25.724 11.1544 26.2649L21.2987 28.5593L25.0196 26.2593L24.3982 23.0501L18.1069 22.8934C17.9206 23.263 17.5377 23.5165 17.0955 23.5165C16.4704 23.5165 15.9635 23.0096 15.9635 22.3845C15.9635 22.3473 15.9653 22.3105 15.9688 22.2742L9.27418 18.363C9.09644 18.4791 8.88405 18.5466 8.65594 18.5466C8.03076 18.5466 7.52393 18.0398 7.52393 17.4145C7.52393 16.7894 8.03076 16.2825 8.65594 16.2825C8.74687 16.2825 8.83527 16.2933 8.92001 16.3135L12.6697 10.7636C12.5365 10.5779 12.4582 10.3504 12.4582 10.1046C12.4582 9.47937 12.9651 8.97255 13.5902 8.97255C14.0178 8.97255 14.3899 9.20959 14.5825 9.55944L21.1617 8.47922C21.2296 7.76099 21.8344 7.19908 22.5704 7.19908C23.3518 7.19908 23.9854 7.8326 23.9854 8.61409ZM18.3749 30.3666C18.1208 30.1232 17.7761 29.9736 17.3964 29.9736C17.0534 29.9736 16.7391 30.0956 16.4942 30.2985L12.1572 27.3621L20.2678 29.1966L18.3749 30.3666ZM22.5704 10.0291C22.2564 10.0291 21.9662 9.92683 21.7315 9.75376L19.6022 11.094L28.0317 13.0276L23.4359 9.73359C23.1966 9.91886 22.8964 10.0291 22.5704 10.0291ZM29.8459 24.2742L26.5131 28.9303C26.5011 28.9255 26.4891 28.9209 26.4768 28.9164C26.4679 28.9132 26.4589 28.91 26.4501 28.907C26.4315 28.9008 26.4127 28.895 26.3938 28.8898L25.9646 26.6733L29.8459 24.2742ZM25.1923 27.1508L25.5476 28.9859C25.3627 29.0868 25.2092 29.2376 25.1049 29.4203L22.4809 28.8268L25.1923 27.1508ZM18.4307 22.0522L23.3034 18.7372C23.3904 18.7826 23.4842 18.8171 23.5826 18.8386L24.2329 22.1966L18.4307 22.0522ZM16.3898 21.4993C16.3808 21.5065 16.3719 21.5139 16.3632 21.5213L10.2697 17.9613L15.4167 18.087L16.3898 21.4993ZM17.7697 21.4751C17.6086 21.3554 17.4146 21.2775 17.2037 21.2575L16.3058 18.1086L22.4959 18.2596L17.7697 21.4751ZM14.2795 11.0026C14.3583 10.942 14.4289 10.8713 14.4894 10.7923L17.4197 11.4645L14.8691 13.07L14.2795 11.0026ZM13.4545 11.2285L13.4613 11.2293L14.1205 13.5411L10.1139 16.063L13.3871 11.2184L13.4016 11.221L13.4113 11.2225L13.4227 11.2243C13.4301 11.2253 13.4374 11.2264 13.4447 11.2273L13.4545 11.2285ZM25.2672 23.0718L25.7919 25.782L29.9864 23.1892L25.2672 23.0718ZM19.4323 30.7112L21.4499 29.464L23.9188 30.0224L19.4323 30.7112ZM29.9325 22.3385L25.1019 22.2183L24.4337 18.7676L29.9325 22.3385ZM10.0495 17.1066L15.1728 17.2318L14.3631 14.3916L10.0495 17.1066ZM15.7951 10.2207L18.4341 10.8261L20.6665 9.42089L15.7951 10.2207Z" fill="url(#paint0_linear)"/>
    <defs>
        <linearGradient id="paint0_linear" x1="10.249" y1="6.47906" x2="23.5214" y2="27.4936" gradientUnits="userSpaceOnUse">
            <stop stop-color="white"/>
            <stop offset="1" stop-color="#35FB8C"/>
        </linearGradient>
    </defs>
</svg>
