<svg width="111" height="30" viewBox="0 0 111 30" fill="none"
    xmlns="http://www.w3.org/2000/svg">
    <path d="M40.8891 23.4184L36.0251 7.5H39.1204L43.1 20.5884L47.1459 7.5H50.2411L45.3772 23.4184H40.8891Z" fill="#EAFC40"/>
    <path d="M54.7805 23.4184V7.5H57.7873V23.4184H54.7805Z" fill="#EAFC40"/>
    <path d="M63.7545 23.4184V7.5H70.4756C70.6303 7.5 70.8367 7.50737 71.0946 7.52211C71.3599 7.52948 71.5957 7.55159 71.8021 7.58844C72.7528 7.73583 73.5303 8.04904 74.1346 8.52806C74.7463 9.00709 75.1958 9.6114 75.4832 10.341C75.7706 11.0632 75.9143 11.8702 75.9143 12.7619C75.9143 14.0958 75.5827 15.2381 74.9194 16.1888C74.2562 17.1321 73.2171 17.7143 71.8021 17.9354L70.4756 18.0238H66.7613V23.4184H63.7545ZM72.7307 23.4184L69.5912 16.9405L72.6865 16.3435L76.1354 23.4184H72.7307ZM66.7613 15.216H70.3429C70.4977 15.216 70.6672 15.2086 70.8514 15.1939C71.0357 15.1791 71.2052 15.1497 71.3599 15.1054C71.7653 14.9949 72.0785 14.8107 72.2995 14.5527C72.5206 14.2874 72.6717 13.9963 72.7528 13.6794C72.8412 13.3552 72.8854 13.0493 72.8854 12.7619C72.8854 12.4745 72.8412 12.1723 72.7528 11.8554C72.6717 11.5312 72.5206 11.2401 72.2995 10.9821C72.0785 10.7168 71.7653 10.5289 71.3599 10.4184C71.2052 10.3742 71.0357 10.3447 70.8514 10.3299C70.6672 10.3152 70.4977 10.3078 70.3429 10.3078H66.7613V15.216Z" fill="#EAFC40"/>
    <path d="M84.9109 23.4184V10.3078H79.8922V7.5H92.9364V10.3078H87.9177V23.4184H84.9109Z" fill="#EAFC40"/>
    <path d="M103.844 23.75C102.562 23.75 101.434 23.4921 100.461 22.9762C99.4884 22.4529 98.7294 21.7197 98.184 20.7764C97.6386 19.833 97.366 18.7239 97.366 17.449V7.52211L100.417 7.5V17.4269C100.417 17.9501 100.505 18.4255 100.682 18.8529C100.859 19.2803 101.102 19.6488 101.412 19.9583C101.729 20.2679 102.094 20.5074 102.506 20.6769C102.926 20.839 103.372 20.9201 103.844 20.9201C104.33 20.9201 104.78 20.8353 105.192 20.6658C105.613 20.4963 105.977 20.2568 106.287 19.9473C106.596 19.6378 106.836 19.2693 107.005 18.8418C107.182 18.4144 107.271 17.9427 107.271 17.4269V7.5H110.322V17.449C110.322 18.7239 110.049 19.833 109.504 20.7764C108.958 21.7197 108.199 22.4529 107.227 22.9762C106.254 23.4921 105.126 23.75 103.844 23.75Z" fill="#EAFC40"/>
    <path fill-rule="evenodd" clip-rule="evenodd" d="M12.0306 14.7076L24.3786 7.62506L13.5847 1.62008L1.54392 8.50051V22.2137L12.0306 28.0909V14.7076ZM25.1746 8.06795C25.1744 8.06784 25.1742 8.06773 25.174 8.06761L25.1746 8.06795ZM0.518613 7.30819L13.0706 0.135614C13.3834 -0.0431189 13.7669 -0.0453154 14.0817 0.129823L25.9252 6.71877C26.6251 7.10815 26.6317 8.11255 25.937 8.51106L13.5745 15.6019V28.9692C13.5745 29.7557 12.7281 30.2516 12.042 29.8671L0.526069 23.4131C0.201184 23.231 0 22.8877 0 22.5152V8.20185C0 7.83249 0.197916 7.49145 0.518613 7.30819Z" fill="#EAFC40"/>
    <path fill-rule="evenodd" clip-rule="evenodd" d="M6.5728 10.7652C6.79215 10.3996 7.26634 10.281 7.63192 10.5004L13.7666 14.1812C14.1321 14.4005 14.2507 14.8747 14.0313 15.2403C13.812 15.6059 13.3378 15.7244 12.9722 15.5051L6.83758 11.8243C6.472 11.6049 6.35345 11.1307 6.5728 10.7652Z" fill="#EAFC40"/>
    <path fill-rule="evenodd" clip-rule="evenodd" d="M17.0883 17.3543V27.5102L22.9365 24.3605C24.9366 23.2833 26.1838 21.195 26.1838 18.9233V12.1675L17.0883 17.3543ZM26.1886 10.3875L15.5444 16.4574V28.3719C15.5444 29.1508 16.376 29.6474 17.0618 29.2781L23.6686 25.7198C26.1687 24.3733 27.7277 21.7629 27.7277 18.9233V11.2816C27.7277 10.4917 26.8747 9.99618 26.1886 10.3875Z" fill="#EAFC40"/>
</svg>
